<?xml version="1.0" encoding="us-ascii" standalone="no"?><svg xmlns="http://www.w3.org/2000/svg" xmlns:xlink="http://www.w3.org/1999/xlink" contentStyleType="text/css" height="739px" preserveAspectRatio="none" style="width:363px;height:739px;background:#FFFFFF;" version="1.1" viewBox="0 0 363 739" width="363px" zoomAndPan="magnify"><defs/><g><!--entity Utilisateur--><g id="elem_Utilisateur"><ellipse cx="51.5" cy="455.5" fill="#F1F1F1" rx="8" ry="8" style="stroke:#181818;stroke-width:0.5;"/><path d="M51.5,463.5 L51.5,490.5 M38.5,471.5 L64.5,471.5 M51.5,490.5 L38.5,505.5 M51.5,490.5 L64.5,505.5 " fill="none" style="stroke:#181818;stroke-width:0.5;"/><text fill="#000000" font-family="sans-serif" font-size="14" lengthAdjust="spacing" textLength="62" x="20.5" y="521.5332">Utilisateur</text></g><g id="elem_UC1"><ellipse cx="257.0583" cy="255.9117" fill="#F1F1F1" rx="100.0583" ry="22.4117" style="stroke:#181818;stroke-width:0.5;"/><text fill="#000000" font-family="sans-serif" font-size="14" lengthAdjust="spacing" textLength="161" x="176.5583" y="259.6402">Connexion / D&#233;connexion</text></g><g id="elem_UC2"><ellipse cx="256.7628" cy="334.1526" fill="#F1F1F1" rx="91.2628" ry="20.6526" style="stroke:#181818;stroke-width:0.5;"/><text fill="#000000" font-family="sans-serif" font-size="14" lengthAdjust="spacing" textLength="141" x="186.2628" y="337.8811">Cr&#233;ation compte client</text></g><g id="elem_UC3"><ellipse cx="257.066" cy="410.9132" fill="#F1F1F1" rx="92.566" ry="20.9132" style="stroke:#181818;stroke-width:0.5;"/><text fill="#000000" font-family="sans-serif" font-size="14" lengthAdjust="spacing" textLength="144" x="185.066" y="414.6417">Recherche de produits</text></g><g id="elem_UC4"><ellipse cx="256.9775" cy="485.7955" fill="#F1F1F1" rx="79.4775" ry="18.2955" style="stroke:#181818;stroke-width:0.5;"/><text fill="#000000" font-family="sans-serif" font-size="14" lengthAdjust="spacing" textLength="113" x="199.256" y="489.8709">Gestion du panier</text></g><g id="elem_UC5"><ellipse cx="257.105" cy="560.221" fill="#F1F1F1" rx="89.105" ry="20.221" style="stroke:#181818;stroke-width:0.5;"/><text fill="#000000" font-family="sans-serif" font-size="14" lengthAdjust="spacing" textLength="136" x="189.105" y="563.9495">Commandes pass&#233;es</text></g><g id="elem_UC6"><ellipse cx="256.8351" cy="633.867" fill="#F1F1F1" rx="82.3351" ry="18.867" style="stroke:#181818;stroke-width:0.5;"/><text fill="#000000" font-family="sans-serif" font-size="14" lengthAdjust="spacing" textLength="120" x="196.8351" y="637.5955">Catalogue produits</text></g><g id="elem_UC7"><ellipse cx="257.113" cy="710.8226" fill="#F1F1F1" rx="99.613" ry="22.3226" style="stroke:#181818;stroke-width:0.5;"/><text fill="#000000" font-family="sans-serif" font-size="14" lengthAdjust="spacing" textLength="160" x="177.113" y="714.5511">Personnalisation produits</text></g><!--entity Administrateur--><g id="elem_Administrateur"><ellipse cx="51.5" cy="72.5" fill="#F1F1F1" rx="8" ry="8" style="stroke:#181818;stroke-width:0.5;"/><path d="M51.5,80.5 L51.5,107.5 M38.5,88.5 L64.5,88.5 M51.5,107.5 L38.5,122.5 M51.5,107.5 L64.5,122.5 " fill="none" style="stroke:#181818;stroke-width:0.5;"/><text fill="#000000" font-family="sans-serif" font-size="14" lengthAdjust="spacing" textLength="91" x="6" y="138.5332">Administrateur</text></g><g id="elem_UC8"><ellipse cx="256.9661" cy="25.7932" fill="#F1F1F1" rx="86.9661" ry="19.7932" style="stroke:#181818;stroke-width:0.5;"/><text fill="#000000" font-family="sans-serif" font-size="14" lengthAdjust="spacing" textLength="131" x="191.4661" y="29.5217">Gestion des produits</text></g><g id="elem_UC9"><ellipse cx="256.837" cy="102.9674" fill="#F1F1F1" rx="97.837" ry="21.9674" style="stroke:#181818;stroke-width:0.5;"/><text fill="#000000" font-family="sans-serif" font-size="14" lengthAdjust="spacing" textLength="156" x="178.837" y="106.6959">Gestion des commandes</text></g><g id="elem_UC10"><ellipse cx="256.8351" cy="178.867" fill="#F1F1F1" rx="82.3351" ry="18.867" style="stroke:#181818;stroke-width:0.5;"/><text fill="#000000" font-family="sans-serif" font-size="14" lengthAdjust="spacing" textLength="120" x="196.8351" y="182.5955">Gestion des stocks</text></g><!--link Utilisateur to UC1--><g id="link_Utilisateur_UC1"><path d="M65.12,446.68 C80.56,404.25 110.55,337.24 157,296 C167.61,286.59 175.2036,281.6132 188.3736,275.9132 " fill="none" id="Utilisateur-to-UC1" style="stroke:#181818;stroke-width:1.0;"/><polygon fill="#181818" points="193.88,273.53,184.0316,273.4338,189.2913,275.516,187.2092,280.7757,193.88,273.53" style="stroke:#181818;stroke-width:1.0;"/></g><!--link Utilisateur to UC2--><g id="link_Utilisateur_UC2"><path d="M81.16,446.97 C100.4,423 127.56,393.14 157,373 C170.49,363.77 180.8948,358.4265 196.0548,352.5565 " fill="none" id="Utilisateur-to-UC2" style="stroke:#181818;stroke-width:1.0;"/><polygon fill="#181818" points="201.65,350.39,191.8129,349.9096,196.9873,352.1954,194.7015,357.3699,201.65,350.39" style="stroke:#181818;stroke-width:1.0;"/></g><!--link Utilisateur to UC3--><g id="link_Utilisateur_UC3"><path d="M82.53,474.93 C115.47,462.79 163.1998,445.1938 202.0498,430.8838 " fill="none" id="Utilisateur-to-UC3" style="stroke:#181818;stroke-width:1.0;"/><polygon fill="#181818" points="207.68,428.81,197.8521,428.1673,202.9882,430.5382,200.6172,435.6742,207.68,428.81" style="stroke:#181818;stroke-width:1.0;"/></g><!--link Utilisateur to UC4--><g id="link_Utilisateur_UC4"><path d="M82.53,486 C107.51,486 138.24,486 171.48,486 " fill="none" id="Utilisateur-to-UC4" style="stroke:#181818;stroke-width:1.0;"/><polygon fill="#181818" points="177.48,486,168.48,482,172.48,486,168.48,490,177.48,486" style="stroke:#181818;stroke-width:1.0;"/></g><!--link Utilisateur to UC5--><g id="link_Utilisateur_UC5"><path d="M82.53,496.92 C115.92,509.06 164.6312,526.7797 203.6012,540.9497 " fill="none" id="Utilisateur-to-UC5" style="stroke:#181818;stroke-width:1.0;"/><polygon fill="#181818" points="209.24,543,202.1487,536.1653,204.541,541.2914,199.4149,543.6837,209.24,543" style="stroke:#181818;stroke-width:1.0;"/></g><!--link Utilisateur to UC6--><g id="link_Utilisateur_UC6"><path d="M81.26,525.21 C100.45,549.02 127.5,578.49 157,598 C170.73,607.08 181.3834,612.2292 196.7634,617.6692 " fill="none" id="Utilisateur-to-UC6" style="stroke:#181818;stroke-width:1.0;"/><polygon fill="#181818" points="202.42,619.67,195.269,612.8978,197.7062,618.0027,192.6013,620.4399,202.42,619.67" style="stroke:#181818;stroke-width:1.0;"/></g><!--link Utilisateur to UC7--><g id="link_Utilisateur_UC7"><path d="M65.67,525.04 C81.43,566.4 111.53,631.1 157,671 C167.73,680.42 175.4477,685.4205 188.7077,691.1205 " fill="none" id="Utilisateur-to-UC7" style="stroke:#181818;stroke-width:1.0;"/><polygon fill="#181818" points="194.22,693.49,187.5313,686.2608,189.6264,691.5154,184.3719,693.6106,194.22,693.49" style="stroke:#181818;stroke-width:1.0;"/></g><!--link Administrateur to UC8--><g id="link_Administrateur_UC8"><path d="M97.22,85.79 C115.71,78.7 137.38,70.42 157,63 C174.33,56.44 187.7783,51.3968 204.5083,45.1568 " fill="none" id="Administrateur-to-UC8" style="stroke:#181818;stroke-width:1.0;"/><polygon fill="#181818" points="210.13,43.06,200.2996,42.4574,205.4453,44.8073,203.0953,49.953,210.13,43.06" style="stroke:#181818;stroke-width:1.0;"/></g><!--link Administrateur to UC9--><g id="link_Administrateur_UC9"><path d="M97.16,103 C115.41,103 131.29,103 152.88,103 " fill="none" id="Administrateur-to-UC9" style="stroke:#181818;stroke-width:1.0;"/><polygon fill="#181818" points="158.88,103,149.88,99,153.88,103,149.88,107,158.88,103" style="stroke:#181818;stroke-width:1.0;"/></g><!--link Administrateur to UC10--><g id="link_Administrateur_UC10"><path d="M97.16,119.68 C131.56,132.52 173.1989,148.0816 207.2189,160.7816 " fill="none" id="Administrateur-to-UC10" style="stroke:#181818;stroke-width:1.0;"/><polygon fill="#181818" points="212.84,162.88,205.8073,155.985,208.1558,161.1313,203.0094,163.4798,212.84,162.88" style="stroke:#181818;stroke-width:1.0;"/></g><!--SRC=[TP5DJWCn38NtEOMNdKK5_OLka52Hs2Aa7Y1AJ1inaunYH-9ASuwv64aXep2aYopo_Cb-VcxnWu4TU7E-C6ZZKR5nLWYfs7auiMaDISRWHI1KaX0MHsSjVaKAxk1b75J-DY095gVZgYbOFmuoTGJbkfuHL6lGSaRN1VgEwe8-Fj08lNSw6AOCRWhm5UdQKGVefJNeCxGj1xkkarOZHOPe771gjIifoR9rv_1_uBwWtj1JN59UeqYJv_138qGH5IoNJxz1LDHrLTrKrMrLtLNLVLLDrdvk-QmxOmsndvrpYZDbDLliiQbpAgURmSCDaDYfpubQtKStVtradt5IlN2uLKZDlW40]--></g></svg>